PathFileType	4	(X/Y/Z)	C:/Users/opensim2020/Desktop/walking_exp_matlab/subject01_walking07_straight_01.trc																																																																																																																															
DataRate	CameraRate	NumFrames	NumMarkers	Units	OrigDataRate	OrigDataStartFrame	OrigNumFrames																																																																																																																											
100	100	8	43	mm	100	655	282																																																																																																																											
Frame#	Time	LFHD			RFHD			LBHD			RBHD			C7			T10			CLAV			STRN			RBAK			LSHO			LUPA			LELB			LFRM			LWRA			LWRB			LFIN			RSHO			RUPA			RELB			RFRM			RWRA			RWRB			RFIN			LASI			RASI			LPSI			RPSI			LTHI			LKNE			LTIB			LANK			LHEE			LTOE			RTHI			RKNE			RTIB			RANK			RHEE			RTOE			*39			*40			*41			*42		
		X1	Y1	Z1	X2	Y2	Z2	X3	Y3	Z3	X4	Y4	Z4	X5	Y5	Z5	X6	Y6	Z6	X7	Y7	Z7	X8	Y8	Z8	X9	Y9	Z9	X10	Y10	Z10	X11	Y11	Z11	X12	Y12	Z12	X13	Y13	Z13	X14	Y14	Z14	X15	Y15	Z15	X16	Y16	Z16	X17	Y17	Z17	X18	Y18	Z18	X19	Y19	Z19	X20	Y20	Z20	X21	Y21	Z21	X22	Y22	Z22	X23	Y23	Z23	X24	Y24	Z24	X25	Y25	Z25	X26	Y26	Z26	X27	Y27	Z27	X28	Y28	Z28	X29	Y29	Z29	X30	Y30	Z30	X31	Y31	Z31	X32	Y32	Z32	X33	Y33	Z33	X34	Y34	Z34	X35	Y35	Z35	X36	Y36	Z36	X37	Y37	Z37	X38	Y38	Z38	X39	Y39	Z39	X40	Y40	Z40	X41	Y41	Z41	X42	Y42	Z42	X43	Y43	Z43
																																																																																																																																		
1	0	-1513.83533	1629.95911	1241.97595	-1524.01282	1636.29114	1358.18823	-1631.75195	1605.47778	1222.7135	-1649.547	1612.10278	1342.21106	-1699.93738	1413.58521	1220.82397	-1738.15747	1117.50952	1198.00769	-1581.23547	1337.3075	1292.70496	-1547.07434	1183.20044	1310.35254	-1792.99744	1219.85376	1252.02429	-1548.56934	1370.11047	1124.81982	-1539.21497	1187.32166	1033.77966	-1563.69006	1038.0304	1023.29126	-1528.77307	926.60785	1018.96918	-1489.17773	803.0625	1075.60046	-1515.66931	804.29114	1021.01599	-1482.96155	727.66241	1042.82971	-1711.63477	1373.47046	1389.34705	-1821.58008	1177.323	1439.03601	-1822.19775	1050.55615	1440.06348	-1806.10095	934.03198	1484.69128	-1718.56909	829.55206	1522.15991	-1776.15027	821.61249	1523.67432	-1736.73657	750.21985	1549.60254	-1531.92664	907.47327	1206.97021	-1654.1344	910.63446	1388.5531	-1712.75684	925.1911	1143.24194	-1792.91943	934.51459	1263.55505	-1496.70105	579.52521	1187.44788	-1500.55334	448.99832	1225.6156	-1537.6908	260.11041	1230.99353	-1575.66785	56.58175	1312.41846	-1629.71375	29.65286	1360.76819	-1434.00696	30.3335	1334.10413	-1776.98022	587.78296	1416.45557	-1783.90088	427.05518	1406.17615	-1899.74475	330.55478	1314.74585	-1990.58997	186.61813	1187.80725	-1990.46338	204.86772	1114.04419	-1972.6134	43.17574	1198.16748	-1524.45337	1670.45862	1333.57971	1973.08643	1023.51593	-3101.96729	2012.52063	1022.04321	-3140.70874	NaN	NaN	NaN
2	0.01	-1505.56409	1630.90149	1244.33826	-1515.34302	1637.25256	1360.51526	-1623.6969	1606.42627	1225.6637	-1640.94971	1613.05188	1345.20679	-1692.0885	1414.47729	1224.65564	-1731.22241	1118.35461	1203.14624	-1572.84399	1338.19568	1295.22998	-1538.5177	1184.12122	1312.82446	-1785.23975	1220.83545	1257.17126	-1541.82324	1370.77454	1127.25146	-1532.18127	1187.89929	1036.48962	-1556.28064	1038.08118	1026.7865	-1520.48743	926.9715	1022.79944	-1478.74084	804.39618	1079.96753	-1505.8844	804.88025	1025.64441	-1472.19128	728.97803	1047.86377	-1702.31982	1374.31531	1393.33215	-1812.87378	1178.63831	1443.82495	-1814.40466	1051.63574	1443.57886	-1799.6344	934.65668	1487.51831	-1713.08411	829.06653	1524.13745	-1770.54285	821.28119	1525.6366	-1731.94678	749.79407	1550.86694	-1524.91174	907.74036	1208.78845	-1644.3313	911.27802	1392.25696	-1707.50281	925.75378	1148.37354	-1785.43713	934.17365	1270.4469	-1493.99866	579.37775	1188.17834	-1497.93445	449.08636	1226.53003	-1536.2981	260.34222	1231.78394	-1575.63818	56.87371	1312.672	-1629.80383	29.77735	1360.83838	-1433.93774	30.14095	1333.88818	-1761.67505	587.14502	1425.15662	-1766.5061	426.68588	1416.61511	-1885.86511	332.55942	1327.77283	-1981.32214	193.07991	1199.88403	-1983.12109	213.05148	1126.79968	-1966.28296	48.53042	1208.24658	-1515.63672	1671.72644	1336.07019	1973.11511	1023.42139	-3101.93774	2012.57776	1022.04535	-3140.69531	NaN	NaN	NaN
3	0.02	-1495.89734	1631.89526	1246.94995	-1506.61914	1638.24622	1362.80664	-1615.77612	1607.4115	1228.59143	-1632.35718	1614.07434	1348.20056	-1684.32458	1415.31934	1228.39929	-1724.20923	1119.13379	1208.24255	-1564.61255	1339.25415	1298.07349	-1529.9989	1185.06738	1315.17371	-1777.46448	1221.76648	1262.14795	-1535.12073	1371.33826	1129.6886	-1525.37756	1188.52222	1039.12402	-1548.90393	1038.28125	1030.08057	-1512.04834	927.37512	1026.46704	-1468.01782	805.85022	1084.26025	-1495.89172	805.39557	1030.41577	-1460.95837	730.25159	1052.86951	-1692.9707	1375.05188	1397.22009	-1804.09485	1179.96252	1448.73828	-1806.54663	1052.81287	1447.25854	-1793.15002	935.41077	1490.37891	-1707.66467	828.5625	1526.11072	-1765.35303	821.72205	1527.83679	-1727.2948	749.20404	1552.25208	-1518.08167	908.14856	1210.82275	-1634.75146	912.10132	1395.99512	-1702.05188	926.39215	1153.44714	-1777.9624	933.95557	1277.00537	-1491.72083	579.14124	1188.81287	-1495.98218	448.87372	1227.03088	-1535.52686	260.36725	1232.45837	-1575.65808	56.7863	1312.69836	-1629.83167	29.75965	1361.04492	-1433.79126	29.98375	1333.57971	-1745.64771	586.58368	1433.66199	-1748.59534	426.54858	1426.44446	-1871.39612	334.77213	1340.44897	-1970.74683	198.52901	1212.00659	-1973.98547	218.80928	1139.14893	-1958.33484	53.29723	1221.09473	-1507.14709	1672.92896	1338.36719	1973.07581	1023.5766	-3101.98779	2012.50842	1022.06146	-3140.72681	NaN	NaN	NaN
4	0.03	-1487.73938	1632.82214	1249.25061	-1497.96204	1639.2688	1365.09497	-1608.16516	1608.55273	1231.44666	-1623.80029	1615.13855	1351.26111	-1676.72205	1416.20032	1232.18958	-1717.45032	1120.0509	1213.2063	-1556.38391	1340.2605	1300.69153	-1521.68494	1186.02148	1317.64148	-1769.61438	1222.64148	1266.91895	-1528.44446	1371.89697	1132.18103	-1518.73267	1189.09839	1041.7406	-1541.47949	1038.63037	1033.35083	-1503.51086	927.89294	1030.02258	-1457.20959	807.50153	1088.47632	-1485.59998	806.16705	1034.92383	-1449.25293	731.61182	1057.66882	-1683.8335	1376.02576	1401.27039	-1795.13342	1181.17236	1453.46399	-1798.56653	1054.11694	1451.15881	-1786.55627	936.15442	1493.36194	-1702.33484	828.11786	1528.10315	-1760.0719	821.9682	1529.9458	-1722.87292	748.72089	1553.64734	-1511.49963	908.75586	1213.01514	-1625.33008	912.93909	1399.79761	-1696.55469	927.1626	1158.40833	-1770.50696	933.98901	1283.26099	-1489.60315	578.92322	1189.40161	-1494.22559	448.4772	1227.27136	-1535.3103	260.33517	1232.79663	-1575.84363	57.06792	1312.78967	-1629.82898	29.71724	1361.20605	-1434.18848	29.58507	1332.41406	-1729.21362	586.22217	1441.89172	-1730.31421	427.24942	1436.03125	-1855.98901	336.76651	1352.37646	-1958.97009	203.15314	1224.28308	-1963.32446	221.61272	1150.24231	-1948.51501	57.73588	1235.26453	-1500.89722	1674.23291	1339.45007	1973.17896	1023.3949	-3101.91699	2012.50256	1021.99225	-3140.67944	NaN	NaN	NaN
5	0.04	-1479.79993	1633.73743	1251.43982	-1489.30542	1640.22571	1367.28308	-1600.07263	1609.32922	1234.45813	-1615.22803	1616.19714	1354.27625	-1669.10461	1417.04919	1236.06018	-1710.63684	1121.06201	1218.12683	-1548.21069	1341.11206	1303.56018	-1513.42236	1186.87598	1320.07947	-1761.74609	1223.51294	1271.58472	-1521.91028	1372.48633	1134.69946	-1512.26855	1189.66016	1044.44385	-1534.12146	1038.57227	1036.84338	-1494.7179	928.42059	1033.55066	-1446.1488	809.29266	1092.495	-1475.18921	807.07947	1039.30835	-1437.57373	733.44519	1062.32397	-1674.7594	1377.00037	1405.38123	-1786.08496	1182.23181	1458.06323	-1790.40234	1055.38733	1455.3064	-1780.0448	937.57983	1496.80701	-1697.08081	827.59308	1530.15332	-1754.92163	822.30322	1532.26733	-1718.62866	748.4588	1555.18127	-1505.16467	909.49646	1215.21582	-1615.97241	913.88354	1403.49866	-1690.97119	928.05042	1163.25769	-1762.97424	934.05182	1289.36438	-1487.31262	578.88501	1190.02075	-1492.70593	448.12643	1227.37915	-1535.41455	260.29477	1232.95313	-1576.04138	57.17876	1312.90234	-1629.86792	29.74629	1361.34412	-1434.22021	29.44412	1331.92346	-1712.77673	586.42303	1449.91492	-1711.87195	427.08719	1444.26257	-1839.88928	338.11374	1363.72229	-1946.55396	206.54671	1236.46082	-1952.7417	224.68291	1161.70105	-1936.67151	61.58053	1250.74023	-1492.90588	1675.14209	1341.34119	1973.20496	1023.34991	-3101.82959	2012.5415	1022.08527	-3140.65674	NaN	NaN	NaN
6	0.05	-1471.81165	1634.57117	1253.65198	-1480.69434	1641.23962	1369.45056	-1592.40869	1610.32251	1237.35364	-1606.68604	1617.25049	1357.27112	-1661.54077	1418.00159	1239.95959	-1703.8324	1122.19165	1222.92468	-1540.06677	1341.88892	1306.43384	-1505.30359	1187.7395	1322.54797	-1753.85095	1224.37769	1276.20544	-1515.46265	1373.10083	1137.21118	-1506.11829	1190.1333	1047.15369	-1526.31909	1038.64209	1039.93713	-1485.6228	929.04535	1037.07654	-1434.92468	811.17493	1096.47705	-1464.48279	808.07922	1043.6554	-1425.41541	735.22003	1066.8324	-1665.60046	1377.7489	1409.37109	-1776.91333	1183.07898	1462.45288	-1782.17139	1056.71008	1459.63147	-1773.28748	938.6109	1500.19641	-1691.85132	827.18445	1532.30017	-1749.7179	822.5741	1534.67456	-1714.48584	748.0484	1556.8512	-1498.85181	910.23187	1217.18567	-1606.64172	915.0329	1407.19324	-1685.46582	929.01636	1167.94495	-1755.323	934.36951	1295.2887	-1484.80908	578.9267	1190.82288	-1491.29517	447.82233	1227.4574	-1535.5564	260.35495	1233.15051	-1576.24475	57.26217	1312.93298	-1628.90015	28.72859	1361.69287	-1434.36719	29.57092	1331.68689	-1696.58386	587.40723	1457.52112	-1693.56958	427.85797	1452.56958	-1823.72534	339.02969	1374.76013	-1933.68652	208.8708	1248.80334	-1942.03931	225.68707	1173.68726	-1922.44373	64.72984	1267.17139	-1484.07739	1676.13782	1343.6178	1973.05396	1023.25769	-3101.94067	2012.55261	1022.09259	-3140.63428	NaN	NaN	NaN
7	0.06	-1466.28223	1635.46521	1255.01855	-1472.17261	1642.24341	1371.67554	-1584.70642	1611.19922	1240.28918	-1598.17566	1618.25989	1360.27246	-1653.93396	1418.96228	1243.94983	-1697.14636	1123.32263	1227.52283	-1531.89563	1342.63867	1309.27051	-1497.22021	1188.37878	1324.86975	-1746.02283	1225.31494	1280.83496	-1509.11584	1373.71716	1139.70349	-1500.06531	1190.55005	1049.87988	-1518.74341	1039.03638	1042.82092	-1476.43445	929.87567	1040.51917	-1423.46704	813.23059	1100.2843	-1453.58643	809.18176	1047.86084	-1413.10266	737.23853	1071.22083	-1656.56384	1378.66479	1413.40527	-1767.98828	1184.15796	1467.09607	-1773.85046	1058.01355	1464.08545	-1766.3855	939.776	1503.69495	-1686.67542	826.72021	1534.41931	-1744.58008	823.18176	1537.14746	-1710.39099	747.96881	1558.64026	-1492.59607	910.89844	1219.01733	-1597.36121	916.1344	1410.59131	-1679.93213	930.07947	1172.57654	-1748.47778	935.89282	1301.16113	-1482.07324	579.00446	1191.85852	-1489.86877	447.70782	1227.69946	-1535.9707	260.27231	1233.16296	-1576.3783	57.42514	1313.09351	-1628.9519	28.57723	1361.81494	-1434.46924	29.49701	1331.26245	-1680.51379	588.79095	1464.90857	-1675.47839	428.92728	1460.4906	-1807.03833	339.26529	1385.4624	-1919.77234	210.26457	1261.52808	-1930.15588	225.75903	1185.9917	-1905.75439	67.73618	1283.81006	-1473.2605	1676.58057	1346.91504	1973.02429	1023.83868	-3102.09619	2012.64575	1021.98236	-3140.66455	NaN	NaN	NaN
8	0.07	-1456.16113	1636.29199	1257.97046	-1463.62146	1643.28308	1373.79578	-1577.04126	1612.01917	1243.23669	-1589.73706	1619.21375	1363.31848	-1646.41064	1419.83386	1247.91418	-1689.70386	1124.16345	1232.26135	-1523.83337	1343.27527	1312.1554	-1489.18787	1188.90198	1327.05774	-1738.25232	1226.25427	1285.54565	-1502.88196	1374.29114	1142.16565	-1494.10767	1191.00391	1052.63464	-1510.65894	1039.38184	1045.92102	-1467.07874	930.85352	1043.85962	-1411.01453	815.4375	1104.47766	-1442.52136	810.53998	1051.9165	-1400.52563	739.49805	1075.28784	-1647.61707	1379.57141	1417.49524	-1759.04089	1185.13892	1471.64771	-1765.45105	1059.17078	1468.54102	-1759.29712	940.76379	1507.16479	-1681.47949	826.29669	1536.75623	-1739.35486	823.67682	1539.98108	-1706.41724	747.63556	1560.51379	-1486.45117	911.534	1220.6731	-1588.09473	917.27399	1413.70764	-1674.37683	931.06171	1177.13098	-1740.35291	936.46454	1307.06152	-1479.23669	579.05139	1193.06104	-1488.323	447.61737	1228.16003	-1535.59753	260.54172	1233.33215	-1576.63867	57.52686	1313.03491	-1629.01587	28.46545	1361.93555	-1434.54675	29.46629	1330.95251	-1664.72925	590.40503	1471.86292	-1657.47046	430.2374	1467.82373	-1791.31628	339.49536	1396.02673	-1905.18799	211.07578	1274.70605	-1918.7865	224.66811	1198.66284	-1887.06018	69.94727	1300.17102	-1467.51233	1678.09875	1347.67053	1973.19641	1023.25714	-3101.91821	2012.66357	1022.07141	-3140.58691	NaN	NaN	NaN
